# xmcd
#
# Track frame offsets:
#	150
#	7771
#	18108
#	27435
#	37455
#	49353
#	56339
#	63577
#	72431
#	81252
#	91817
#	100219
#	108564
#	116730
#
# Disc length: 1703 seconds
#
# Revision: 2
# Processed by: cddbd v1.5.2PL0 Copyright (c) Steve Scherf et al.
# Submitted via: audiograbber 1.83.01
#
DISCID=bb06a50e
DTITLE=Cecilia Echenique - Villancicos Vol. 2
DYEAR=2004
DGENRE=Ballad
TTITLE0=Gloria cantad
TTITLE1=Rodolfo el Reno
TTITLE2=Huachitorito
TTITLE3=Villancico de Colliguay
TTITLE4=El regreso
TTITLE5=Fum, fum, fum
TTITLE6=A las 12 de la noche
TTITLE7=Arbol fiel
TTITLE8=Burrito de Belén
TTITLE9=Llegó Noel
TTITLE10=Adornemos nuestras casas
TTITLE11=Vamos a Belén
TTITLE12=Hacia Belén va la burra
TTITLE13=Pequeño pueblo
EXTD=
EXTT0=
EXTT1=
EXTT2=
EXTT3=
EXTT4=
EXTT5=
EXTT6=
EXTT7=
EXTT8=
EXTT9=
EXTT10=
EXTT11=
EXTT12=
EXTT13=
PLAYORDER=
